<svg width="25" height="25" viewBox="0 0 25 25" fill="none" xmlns="http://www.w3.org/2000/svg">
<path d="M9.19995 19.1601C4.89995 20.5601 4.89995 16.6601 3.19995 16.1601M15.2 21.1601V17.6601C15.2 16.6601 15.3 16.2601 14.7 15.6601C17.5 15.3601 20.2 14.2601 20.2 9.66014C20.1988 8.46578 19.7325 7.31592 18.9 6.46014C19.2905 5.42142 19.2545 4.27963 18.8 3.26014C18.8 3.26014 17.7 2.96014 15.8 4.26014C14.1362 3.82941 12.3638 3.82941 10.7 4.26014C8.79995 2.96014 7.69995 3.26014 7.69995 3.26014C7.24543 4.27963 7.20946 5.42142 7.59995 6.46014C6.7674 7.31592 6.3012 8.46578 6.29995 9.66014C6.29995 14.2601 8.99995 15.3601 11.8 15.6601C11.2 16.2601 11.2 16.6601 11.2 17.6601V21.1601" stroke="#94199E" stroke-opacity="0.933333" stroke-width="2" stroke-linecap="round" stroke-linejoin="round"/>
</svg>
