<svg width="25" height="25" viewBox="0 0 25 25" fill="none" xmlns="http://www.w3.org/2000/svg">
<path d="M16.2 8.15991C17.7913 8.15991 19.3174 8.79205 20.4426 9.91727C21.5679 11.0425 22.2 12.5686 22.2 14.1599V21.1599H18.2V14.1599C18.2 13.6295 17.9893 13.1208 17.6142 12.7457C17.2391 12.3706 16.7304 12.1599 16.2 12.1599C15.6696 12.1599 15.1609 12.3706 14.7858 12.7457C14.4107 13.1208 14.2 13.6295 14.2 14.1599V21.1599H10.2V14.1599C10.2 12.5686 10.8321 11.0425 11.9574 9.91727C13.0826 8.79205 14.6087 8.15991 16.2 8.15991Z" stroke="#94199E" stroke-opacity="0.933333" stroke-width="2" stroke-linecap="round" stroke-linejoin="round"/>
<path d="M6.19995 9.15991H2.19995V21.1599H6.19995V9.15991Z" stroke="#94199E" stroke-opacity="0.933333" stroke-width="2" stroke-linecap="round" stroke-linejoin="round"/>
<path d="M4.19995 6.15991C5.30452 6.15991 6.19995 5.26448 6.19995 4.15991C6.19995 3.05534 5.30452 2.15991 4.19995 2.15991C3.09538 2.15991 2.19995 3.05534 2.19995 4.15991C2.19995 5.26448 3.09538 6.15991 4.19995 6.15991Z" stroke="#94199E" stroke-opacity="0.933333" stroke-width="2" stroke-linecap="round" stroke-linejoin="round"/>
</svg>
