<svg width="228" height="28" viewBox="0 0 228 28" fill="none" xmlns="http://www.w3.org/2000/svg">
<path d="M6.156 22V6.664H0.108V3.1H16.578V6.664H10.53V22H6.156ZM27.4634 7.258C28.6154 7.258 29.6414 7.492 30.5414 7.96C31.4594 8.41 32.1794 9.112 32.7014 10.066C33.2234 11.002 33.4844 12.208 33.4844 13.684V22H29.2724V14.332C29.2724 13.162 29.0114 12.298 28.4894 11.74C27.9854 11.182 27.2654 10.903 26.3294 10.903C25.6634 10.903 25.0604 11.047 24.5204 11.335C23.9984 11.605 23.5844 12.028 23.2784 12.604C22.9904 13.18 22.8464 13.918 22.8464 14.818V22H18.6344V1.966H22.8464V11.497L21.9014 10.282C22.4234 9.31 23.1704 8.563 24.1424 8.041C25.1144 7.519 26.2214 7.258 27.4634 7.258ZM46.2124 22V19.165L45.9424 18.544V13.468C45.9424 12.568 45.6634 11.866 45.1054 11.362C44.5654 10.858 43.7284 10.606 42.5944 10.606C41.8204 10.606 41.0554 10.732 40.2994 10.984C39.5614 11.218 38.9314 11.542 38.4094 11.956L36.8974 9.013C37.6894 8.455 38.6434 8.023 39.7594 7.717C40.8754 7.411 42.0094 7.258 43.1614 7.258C45.3754 7.258 47.0944 7.78 48.3184 8.824C49.5424 9.868 50.1544 11.497 50.1544 13.711V22H46.2124ZM41.7844 22.216C40.6504 22.216 39.6784 22.027 38.8684 21.649C38.0584 21.253 37.4374 20.722 37.0054 20.056C36.5734 19.39 36.3574 18.643 36.3574 17.815C36.3574 16.951 36.5644 16.195 36.9784 15.547C37.4104 14.899 38.0854 14.395 39.0034 14.035C39.9214 13.657 41.1184 13.468 42.5944 13.468H46.4554V15.925H43.0534C42.0634 15.925 41.3794 16.087 41.0014 16.411C40.6414 16.735 40.4614 17.14 40.4614 17.626C40.4614 18.166 40.6684 18.598 41.0824 18.922C41.5144 19.228 42.0994 19.381 42.8374 19.381C43.5394 19.381 44.1694 19.219 44.7274 18.895C45.2854 18.553 45.6904 18.058 45.9424 17.41L46.5904 19.354C46.2844 20.29 45.7264 21.001 44.9164 21.487C44.1064 21.973 43.0624 22.216 41.7844 22.216ZM55.5388 27.454C54.7828 27.454 54.0358 27.337 53.2978 27.103C52.5598 26.869 51.9568 26.545 51.4888 26.131L53.0278 23.134C53.3518 23.422 53.7208 23.647 54.1348 23.809C54.5668 23.971 54.9898 24.052 55.4038 24.052C55.9978 24.052 56.4658 23.908 56.8078 23.62C57.1678 23.35 57.4918 22.891 57.7798 22.243L58.5358 20.461L58.8598 20.002L64.0708 7.474H68.1208L61.5598 22.891C61.0918 24.061 60.5518 24.979 59.9398 25.645C59.3458 26.311 58.6798 26.779 57.9418 27.049C57.2218 27.319 56.4208 27.454 55.5388 27.454ZM58.0228 22.567L51.5428 7.474H55.8898L60.9118 19.624L58.0228 22.567ZM74.5156 22.216C73.2736 22.216 72.0766 22.072 70.9246 21.784C69.7906 21.478 68.8906 21.1 68.2246 20.65L69.6286 17.626C70.2946 18.04 71.0776 18.382 71.9776 18.652C72.8956 18.904 73.7956 19.03 74.6776 19.03C75.6496 19.03 76.3336 18.913 76.7296 18.679C77.1436 18.445 77.3506 18.121 77.3506 17.707C77.3506 17.365 77.1886 17.113 76.8646 16.951C76.5586 16.771 76.1446 16.636 75.6226 16.546C75.1006 16.456 74.5246 16.366 73.8946 16.276C73.2826 16.186 72.6616 16.069 72.0316 15.925C71.4016 15.763 70.8256 15.529 70.3036 15.223C69.7816 14.917 69.3586 14.503 69.0346 13.981C68.7286 13.459 68.5756 12.784 68.5756 11.956C68.5756 11.038 68.8366 10.228 69.3586 9.526C69.8986 8.824 70.6726 8.275 71.6806 7.879C72.6886 7.465 73.8946 7.258 75.2986 7.258C76.2886 7.258 77.2966 7.366 78.3226 7.582C79.3486 7.798 80.2036 8.113 80.8876 8.527L79.4836 11.524C78.7816 11.11 78.0706 10.831 77.3506 10.687C76.6486 10.525 75.9646 10.444 75.2986 10.444C74.3626 10.444 73.6786 10.57 73.2466 10.822C72.8146 11.074 72.5986 11.398 72.5986 11.794C72.5986 12.154 72.7516 12.424 73.0576 12.604C73.3816 12.784 73.8046 12.928 74.3266 13.036C74.8486 13.144 75.4156 13.243 76.0276 13.333C76.6576 13.405 77.2876 13.522 77.9176 13.684C78.5476 13.846 79.1146 14.08 79.6186 14.386C80.1406 14.674 80.5636 15.079 80.8876 15.601C81.2116 16.105 81.3736 16.771 81.3736 17.599C81.3736 18.499 81.1036 19.3 80.5636 20.002C80.0236 20.686 79.2406 21.226 78.2146 21.622C77.2066 22.018 75.9736 22.216 74.5156 22.216Z" fill="#F3F4F6"/>
<path d="M97.2293 3.1H101.603V22H97.2293V3.1ZM88.6433 22H84.2693V3.1H88.6433V22ZM97.5533 14.251H88.3193V10.552H97.5533V14.251ZM112.987 22.216C111.331 22.216 109.873 21.892 108.613 21.244C107.371 20.596 106.408 19.714 105.724 18.598C105.04 17.464 104.698 16.177 104.698 14.737C104.698 13.279 105.031 11.992 105.697 10.876C106.381 9.742 107.308 8.86 108.478 8.23C109.648 7.582 110.971 7.258 112.447 7.258C113.869 7.258 115.147 7.564 116.281 8.176C117.433 8.77 118.342 9.634 119.008 10.768C119.674 11.884 120.007 13.225 120.007 14.791C120.007 14.953 119.998 15.142 119.98 15.358C119.962 15.556 119.944 15.745 119.926 15.925H108.127V13.468H117.712L116.092 14.197C116.092 13.441 115.939 12.784 115.633 12.226C115.327 11.668 114.904 11.236 114.364 10.93C113.824 10.606 113.194 10.444 112.474 10.444C111.754 10.444 111.115 10.606 110.557 10.93C110.017 11.236 109.594 11.677 109.288 12.253C108.982 12.811 108.829 13.477 108.829 14.251V14.899C108.829 15.691 109 16.393 109.342 17.005C109.702 17.599 110.197 18.058 110.827 18.382C111.475 18.688 112.231 18.841 113.095 18.841C113.869 18.841 114.544 18.724 115.12 18.49C115.714 18.256 116.254 17.905 116.74 17.437L118.981 19.867C118.315 20.623 117.478 21.208 116.47 21.622C115.462 22.018 114.301 22.216 112.987 22.216ZM131.64 7.258C132.792 7.258 133.818 7.492 134.718 7.96C135.636 8.41 136.356 9.112 136.878 10.066C137.4 11.002 137.661 12.208 137.661 13.684V22H133.449V14.332C133.449 13.162 133.188 12.298 132.666 11.74C132.162 11.182 131.442 10.903 130.506 10.903C129.84 10.903 129.237 11.047 128.697 11.335C128.175 11.605 127.761 12.028 127.455 12.604C127.167 13.18 127.023 13.918 127.023 14.818V22H122.811V7.474H126.834V11.497L126.078 10.282C126.6 9.31 127.347 8.563 128.319 8.041C129.291 7.519 130.398 7.258 131.64 7.258ZM141.479 22V7.474H145.502V11.578L144.935 10.39C145.367 9.364 146.06 8.59 147.014 8.068C147.968 7.528 149.129 7.258 150.497 7.258V11.146C150.317 11.128 150.155 11.119 150.011 11.119C149.867 11.101 149.714 11.092 149.552 11.092C148.4 11.092 147.464 11.425 146.744 12.091C146.042 12.739 145.691 13.756 145.691 15.142V22H141.479ZM153.028 22V7.474H157.24V22H153.028ZM155.134 5.449C154.36 5.449 153.73 5.224 153.244 4.774C152.758 4.324 152.515 3.766 152.515 3.1C152.515 2.434 152.758 1.876 153.244 1.426C153.73 0.975999 154.36 0.750998 155.134 0.750998C155.908 0.750998 156.538 0.966999 157.024 1.399C157.51 1.813 157.753 2.353 157.753 3.019C157.753 3.721 157.51 4.306 157.024 4.774C156.556 5.224 155.926 5.449 155.134 5.449ZM167.332 22.216C165.964 22.216 164.731 21.91 163.633 21.298C162.535 20.686 161.662 19.822 161.014 18.706C160.384 17.59 160.069 16.267 160.069 14.737C160.069 13.225 160.384 11.911 161.014 10.795C161.662 9.679 162.535 8.815 163.633 8.203C164.731 7.573 165.964 7.258 167.332 7.258C168.61 7.258 169.699 7.528 170.599 8.068C171.517 8.608 172.219 9.427 172.705 10.525C173.191 11.623 173.434 13.027 173.434 14.737C173.434 16.429 173.182 17.833 172.678 18.949C172.174 20.047 171.463 20.866 170.545 21.406C169.627 21.946 168.556 22.216 167.332 22.216ZM168.061 18.76C168.745 18.76 169.366 18.598 169.924 18.274C170.482 17.95 170.923 17.491 171.247 16.897C171.589 16.285 171.76 15.565 171.76 14.737C171.76 13.891 171.589 13.171 171.247 12.577C170.923 11.983 170.482 11.524 169.924 11.2C169.366 10.876 168.745 10.714 168.061 10.714C167.359 10.714 166.729 10.876 166.171 11.2C165.613 11.524 165.163 11.983 164.821 12.577C164.497 13.171 164.335 13.891 164.335 14.737C164.335 15.565 164.497 16.285 164.821 16.897C165.163 17.491 165.613 17.95 166.171 18.274C166.729 18.598 167.359 18.76 168.061 18.76ZM171.679 27.238V19.057L171.949 14.764L171.868 10.444V7.474H175.891V27.238H171.679ZM185.92 22.216C184.714 22.216 183.634 21.982 182.68 21.514C181.744 21.046 181.015 20.335 180.493 19.381C179.971 18.409 179.71 17.176 179.71 15.682V7.474H183.922V15.061C183.922 16.267 184.174 17.158 184.678 17.734C185.2 18.292 185.929 18.571 186.865 18.571C187.513 18.571 188.089 18.436 188.593 18.166C189.097 17.878 189.493 17.446 189.781 16.87C190.069 16.276 190.213 15.538 190.213 14.656V7.474H194.425V22H190.429V18.004L191.158 19.165C190.672 20.173 189.952 20.938 188.998 21.46C188.062 21.964 187.036 22.216 185.92 22.216ZM205.536 22.216C203.88 22.216 202.422 21.892 201.162 21.244C199.92 20.596 198.957 19.714 198.273 18.598C197.589 17.464 197.247 16.177 197.247 14.737C197.247 13.279 197.58 11.992 198.246 10.876C198.93 9.742 199.857 8.86 201.027 8.23C202.197 7.582 203.52 7.258 204.996 7.258C206.418 7.258 207.696 7.564 208.83 8.176C209.982 8.77 210.891 9.634 211.557 10.768C212.223 11.884 212.556 13.225 212.556 14.791C212.556 14.953 212.547 15.142 212.529 15.358C212.511 15.556 212.493 15.745 212.475 15.925H200.676V13.468H210.261L208.641 14.197C208.641 13.441 208.488 12.784 208.182 12.226C207.876 11.668 207.453 11.236 206.913 10.93C206.373 10.606 205.743 10.444 205.023 10.444C204.303 10.444 203.664 10.606 203.106 10.93C202.566 11.236 202.143 11.677 201.837 12.253C201.531 12.811 201.378 13.477 201.378 14.251V14.899C201.378 15.691 201.549 16.393 201.891 17.005C202.251 17.599 202.746 18.058 203.376 18.382C204.024 18.688 204.78 18.841 205.644 18.841C206.418 18.841 207.093 18.724 207.669 18.49C208.263 18.256 208.803 17.905 209.289 17.437L211.53 19.867C210.864 20.623 210.027 21.208 209.019 21.622C208.011 22.018 206.85 22.216 205.536 22.216ZM220.247 22.216C219.005 22.216 217.808 22.072 216.656 21.784C215.522 21.478 214.622 21.1 213.956 20.65L215.36 17.626C216.026 18.04 216.809 18.382 217.709 18.652C218.627 18.904 219.527 19.03 220.409 19.03C221.381 19.03 222.065 18.913 222.461 18.679C222.875 18.445 223.082 18.121 223.082 17.707C223.082 17.365 222.92 17.113 222.596 16.951C222.29 16.771 221.876 16.636 221.354 16.546C220.832 16.456 220.256 16.366 219.626 16.276C219.014 16.186 218.393 16.069 217.763 15.925C217.133 15.763 216.557 15.529 216.035 15.223C215.513 14.917 215.09 14.503 214.766 13.981C214.46 13.459 214.307 12.784 214.307 11.956C214.307 11.038 214.568 10.228 215.09 9.526C215.63 8.824 216.404 8.275 217.412 7.879C218.42 7.465 219.626 7.258 221.03 7.258C222.02 7.258 223.028 7.366 224.054 7.582C225.08 7.798 225.935 8.113 226.619 8.527L225.215 11.524C224.513 11.11 223.802 10.831 223.082 10.687C222.38 10.525 221.696 10.444 221.03 10.444C220.094 10.444 219.41 10.57 218.978 10.822C218.546 11.074 218.33 11.398 218.33 11.794C218.33 12.154 218.483 12.424 218.789 12.604C219.113 12.784 219.536 12.928 220.058 13.036C220.58 13.144 221.147 13.243 221.759 13.333C222.389 13.405 223.019 13.522 223.649 13.684C224.279 13.846 224.846 14.08 225.35 14.386C225.872 14.674 226.295 15.079 226.619 15.601C226.943 16.105 227.105 16.771 227.105 17.599C227.105 18.499 226.835 19.3 226.295 20.002C225.755 20.686 224.972 21.226 223.946 21.622C222.938 22.018 221.705 22.216 220.247 22.216Z" fill="#1A6E8A"/>
</svg>
